M48
; DRILL file {KiCad (6.0.1)} date Sun 06 Feb 2022 11:46:36 AM EST
; FORMAT={-:-/ absolute / inch / decimal}
; #@! TF.CreationDate,2022-02-06T11:46:36-05:00
; #@! TF.GenerationSoftware,Kicad,Pcbnew,(6.0.1)
; #@! TF.FileFunction,MixedPlating,1,2
FMAT,2
INCH
; #@! TA.AperFunction,Plated,PTH,ComponentDrill
T1C0.0295
; #@! TA.AperFunction,Plated,PTH,ComponentDrill
T2C0.0300
; #@! TA.AperFunction,Plated,PTH,ComponentDrill
T3C0.0315
%
G90
G05
T1
X6.3488Y-3.1083
X6.3516Y-2.722
X6.3988Y-3.1083
X6.4016Y-2.722
X6.4488Y-3.1083
X6.4516Y-2.722
X6.6094Y-3.5555
X6.6594Y-3.5555
X6.7094Y-3.5555
T2
X1.8472Y-3.0071
X1.8472Y-3.6071
X1.9472Y-3.0071
X1.9472Y-3.6071
X2.0472Y-3.0071
X2.0472Y-3.6071
X2.1472Y-3.0071
X2.1472Y-3.6071
X2.2472Y-3.0071
X2.2472Y-3.6071
X2.8709Y-3.0071
X2.8709Y-3.6071
X2.9709Y-3.0071
X2.9709Y-3.6071
X3.0709Y-3.0071
X3.0709Y-3.6071
X3.1709Y-3.0071
X3.1709Y-3.6071
X3.2709Y-3.0071
X3.2709Y-3.6071
X3.8945Y-3.0071
X3.8945Y-3.6071
X3.9945Y-3.0071
X3.9945Y-3.6071
X4.0945Y-3.0071
X4.0945Y-3.6071
X4.1945Y-3.0071
X4.1945Y-3.6071
X4.2945Y-3.0071
X4.2945Y-3.6071
X4.9181Y-3.0071
X4.9181Y-3.6071
X5.0181Y-3.0071
X5.0181Y-3.6071
X5.1181Y-3.0071
X5.1181Y-3.6071
X5.2181Y-3.0071
X5.2181Y-3.6071
X5.3181Y-3.0071
X5.3181Y-3.6071
T3
X0.2854Y-3.2126
X0.2854Y-3.4094
X0.334Y-1.7559
X0.334Y-2.3504
X0.4324Y-1.7559
X0.4324Y-2.3504
X0.4331Y-2.7264
X0.4331Y-3.3264
X5.7492Y-2.9016
X5.7492Y-3.3091
X6.0465Y-2.2953
X6.0465Y-2.435
X6.0465Y-2.5728
X6.1272Y-3.6969
X6.3492Y-2.9016
X6.3492Y-3.3091
X6.6465Y-2.2953
X6.6465Y-2.435
X6.6465Y-2.5728
X6.7272Y-3.6969
T0
M30
