M48
; DRILL file {KiCad (6.0.1)} date Sun 06 Feb 2022 11:46:36 AM EST
; FORMAT={-:-/ absolute / inch / decimal}
; #@! TF.CreationDate,2022-02-06T11:46:36-05:00
; #@! TF.GenerationSoftware,Kicad,Pcbnew,(6.0.1)
; #@! TF.FileFunction,MixedPlating,1,2
FMAT,2
INCH
; #@! TA.AperFunction,Plated,PTH,ViaDrill
T4C0.0354
; #@! TA.AperFunction,Plated,PTH,ComponentDrill
T5C0.0354
%
G90
G05
T4
X1.1909Y-2.5295
X1.1909Y-2.9272
X1.2736Y-2.4685
X1.2736Y-2.9252
X1.4803Y-2.6437
X1.4823Y-2.8858
X1.4843Y-3.3406
X1.4843Y-3.5079
X1.6673Y-2.4823
X1.6673Y-2.685
X1.8484Y-2.7402
X1.8484Y-2.8622
T5
X4.3012Y-0.7953
X4.4012Y-0.7953
X4.4012Y-1.7953
X4.5012Y-0.7953
X4.5012Y-1.7953
X4.6012Y-0.7953
X4.6012Y-1.7953
X4.7012Y-0.7953
X4.7012Y-1.7953
X4.8012Y-0.7953
X5.3465Y-0.3465
X5.3465Y-0.4465
X5.3465Y-0.5465
X5.3465Y-0.6465
X5.3465Y-0.7465
X5.3465Y-0.8465
X5.3465Y-0.9465
X5.3465Y-1.0465
X5.3465Y-1.1465
X5.3465Y-1.2465
X5.3465Y-1.3465
X5.3465Y-1.4465
X5.3465Y-1.5465
X5.3465Y-1.6465
X5.3465Y-1.7465
X5.3465Y-1.8465
X5.3465Y-1.9465
X5.3465Y-2.0465
X5.3465Y-2.1465
X5.748Y-3.1102
X5.748Y-3.5039
X5.848Y-3.1102
X5.848Y-3.5039
X6.027Y-3.5039
X6.127Y-3.5039
X6.3465Y-0.3465
X6.3465Y-0.4465
X6.3465Y-0.5465
X6.3465Y-0.6465
X6.3465Y-0.7465
X6.3465Y-0.8465
X6.3465Y-0.9465
X6.3465Y-1.0465
X6.3465Y-1.1465
X6.3465Y-1.2465
X6.3465Y-1.3465
X6.3465Y-1.4465
X6.3465Y-1.5465
X6.3465Y-1.6465
X6.3465Y-1.7465
X6.3465Y-1.8465
X6.3465Y-1.9465
X6.3465Y-2.0465
X6.3465Y-2.1465
T0
M30
