M48
; DRILL file {KiCad (6.0.1)} date Sun 06 Feb 2022 11:46:36 AM EST
; FORMAT={-:-/ absolute / inch / decimal}
; #@! TF.CreationDate,2022-02-06T11:46:36-05:00
; #@! TF.GenerationSoftware,Kicad,Pcbnew,(6.0.1)
; #@! TF.FileFunction,MixedPlating,1,2
FMAT,2
INCH
; #@! TA.AperFunction,Plated,PTH,ComponentDrill
T8C0.0469
; #@! TA.AperFunction,Plated,PTH,ComponentDrill
T9C0.0472
%
G90
G05
T8
X0.8268Y-0.8031
X0.9268Y-0.8031
X1.0268Y-0.8031
X1.1268Y-0.8031
X1.2268Y-0.8031
X1.3268Y-0.8031
X1.4268Y-0.8031
X1.5268Y-0.8031
X1.6268Y-0.8031
X1.7268Y-0.8031
X6.9291Y-3.2874
X6.9291Y-3.3874
X6.9291Y-3.4874
X6.9291Y-3.5874
X6.9291Y-3.6874
X6.9291Y-3.7874
T9
X0.624Y-1.1432
X0.7756Y-1.1432
X0.9272Y-1.1432
X1.0787Y-1.1432
T0
M30
