%TF.GenerationSoftware,KiCad,Pcbnew,(6.0.2)*%
%TF.CreationDate,2022-02-26T12:49:07-05:00*%
%TF.ProjectId,digiMatex_DS410,64696769-4d61-4746-9578-5f4453343130,A*%
%TF.SameCoordinates,PX2ebae40PY2255100*%
%TF.FileFunction,Paste,Bot*%
%TF.FilePolarity,Positive*%
%FSLAX46Y46*%
G04 Gerber Fmt 4.6, Leading zero omitted, Abs format (unit mm)*
G04 Created by KiCad (PCBNEW (6.0.2)) date 2022-02-26 12:49:07*
%MOMM*%
%LPD*%
G01*
G04 APERTURE LIST*
G04 Aperture macros list*
%AMRoundRect*
0 Rectangle with rounded corners*
0 $1 Rounding radius*
0 $2 $3 $4 $5 $6 $7 $8 $9 X,Y pos of 4 corners*
0 Add a 4 corners polygon primitive as box body*
4,1,4,$2,$3,$4,$5,$6,$7,$8,$9,$2,$3,0*
0 Add four circle primitives for the rounded corners*
1,1,$1+$1,$2,$3*
1,1,$1+$1,$4,$5*
1,1,$1+$1,$6,$7*
1,1,$1+$1,$8,$9*
0 Add four rect primitives between the rounded corners*
20,1,$1+$1,$2,$3,$4,$5,0*
20,1,$1+$1,$4,$5,$6,$7,0*
20,1,$1+$1,$6,$7,$8,$9,0*
20,1,$1+$1,$8,$9,$2,$3,0*%
G04 Aperture macros list end*
%ADD10RoundRect,0.250000X-0.350000X-0.450000X0.350000X-0.450000X0.350000X0.450000X-0.350000X0.450000X0*%
%ADD11R,3.050000X2.750000*%
%ADD12R,2.200000X1.200000*%
%ADD13RoundRect,0.250000X-0.450000X0.350000X-0.450000X-0.350000X0.450000X-0.350000X0.450000X0.350000X0*%
%ADD14RoundRect,0.237500X-0.250000X-0.237500X0.250000X-0.237500X0.250000X0.237500X-0.250000X0.237500X0*%
%ADD15RoundRect,0.237500X-0.237500X0.250000X-0.237500X-0.250000X0.237500X-0.250000X0.237500X0.250000X0*%
%ADD16RoundRect,0.237500X0.237500X-0.250000X0.237500X0.250000X-0.237500X0.250000X-0.237500X-0.250000X0*%
%ADD17RoundRect,0.225000X-0.225000X-0.250000X0.225000X-0.250000X0.225000X0.250000X-0.225000X0.250000X0*%
%ADD18R,2.750000X3.050000*%
%ADD19R,1.200000X2.200000*%
%ADD20RoundRect,0.150000X-0.150000X0.587500X-0.150000X-0.587500X0.150000X-0.587500X0.150000X0.587500X0*%
%ADD21RoundRect,0.225000X-0.250000X0.225000X-0.250000X-0.225000X0.250000X-0.225000X0.250000X0.225000X0*%
%ADD22RoundRect,0.225000X0.250000X-0.225000X0.250000X0.225000X-0.250000X0.225000X-0.250000X-0.225000X0*%
%ADD23RoundRect,0.250000X-0.650000X0.325000X-0.650000X-0.325000X0.650000X-0.325000X0.650000X0.325000X0*%
%ADD24RoundRect,0.150000X-0.150000X0.875000X-0.150000X-0.875000X0.150000X-0.875000X0.150000X0.875000X0*%
%ADD25R,5.000000X5.000000*%
%ADD26R,2.000000X0.900000*%
%ADD27R,0.900000X2.000000*%
G04 APERTURE END LIST*
D10*
%TO.C,R13*%
X129400000Y-31800000D03*
X127400000Y-31800000D03*
%TD*%
D11*
%TO.C,U2*%
X10075000Y-46475000D03*
X10075000Y-49525000D03*
X6725000Y-46475000D03*
X6725000Y-49525000D03*
D12*
X14700000Y-45720000D03*
X14700000Y-50280000D03*
%TD*%
D13*
%TO.C,R12*%
X117600000Y-28000000D03*
X117600000Y-30000000D03*
%TD*%
%TO.C,R11*%
X114700000Y-28000000D03*
X114700000Y-30000000D03*
%TD*%
D14*
%TO.C,R10*%
X134612500Y-31800000D03*
X132787500Y-31800000D03*
%TD*%
%TO.C,R9*%
X125287500Y-25500000D03*
X127112500Y-25500000D03*
%TD*%
D15*
%TO.C,R8*%
X156800000Y-10187500D03*
X156800000Y-12012500D03*
%TD*%
D16*
%TO.C,R5*%
X110750000Y-50112500D03*
X110750000Y-48287500D03*
%TD*%
%TO.C,R4*%
X122850000Y-48287500D03*
X122850000Y-50112500D03*
%TD*%
%TO.C,R2*%
X116800000Y-50112500D03*
X116800000Y-48287500D03*
%TD*%
D14*
%TO.C,R1*%
X20287500Y-91700000D03*
X22112500Y-91700000D03*
%TD*%
D17*
%TO.C,C8*%
X125425000Y-28000000D03*
X126975000Y-28000000D03*
%TD*%
D18*
%TO.C,U4*%
X80975000Y-23175000D03*
X80975000Y-19825000D03*
X84025000Y-19825000D03*
X84025000Y-23175000D03*
D19*
X84780000Y-27800000D03*
X80220000Y-27800000D03*
%TD*%
D20*
%TO.C,Q1*%
X122850000Y-52862500D03*
X124750000Y-52862500D03*
X123800000Y-54737500D03*
%TD*%
D21*
%TO.C,C5*%
X159300000Y-10325000D03*
X159300000Y-11875000D03*
%TD*%
D20*
%TO.C,Q2*%
X116800000Y-52862500D03*
X118700000Y-52862500D03*
X117750000Y-54737500D03*
%TD*%
D22*
%TO.C,C7*%
X151000000Y-10225000D03*
X151000000Y-11775000D03*
%TD*%
D20*
%TO.C,Q3*%
X110750000Y-52862500D03*
X112650000Y-52862500D03*
X111700000Y-54737500D03*
%TD*%
D23*
%TO.C,C6*%
X153900000Y-13175000D03*
X153900000Y-10225000D03*
%TD*%
D17*
%TO.C,C2*%
X11375000Y-86500000D03*
X9825000Y-86500000D03*
%TD*%
D24*
%TO.C,U1*%
X14115000Y-88650000D03*
X15385000Y-88650000D03*
X16655000Y-88650000D03*
X17925000Y-88650000D03*
X19195000Y-88650000D03*
X20465000Y-88650000D03*
X21735000Y-88650000D03*
X23005000Y-88650000D03*
X24275000Y-88650000D03*
X25545000Y-88650000D03*
X26815000Y-88650000D03*
X28085000Y-88650000D03*
X28085000Y-79350000D03*
X26815000Y-79350000D03*
X25545000Y-79350000D03*
X24275000Y-79350000D03*
X23005000Y-79350000D03*
X21735000Y-79350000D03*
X20465000Y-79350000D03*
X19195000Y-79350000D03*
X17925000Y-79350000D03*
X16655000Y-79350000D03*
X15385000Y-79350000D03*
X14115000Y-79350000D03*
%TD*%
D25*
%TO.C,U3*%
X139500000Y-16495000D03*
D26*
X130000000Y-8995000D03*
X130000000Y-10265000D03*
X130000000Y-11535000D03*
X130000000Y-12805000D03*
X130000000Y-14075000D03*
X130000000Y-15345000D03*
X130000000Y-16615000D03*
X130000000Y-17885000D03*
X130000000Y-19155000D03*
X130000000Y-20425000D03*
X130000000Y-21695000D03*
X130000000Y-22965000D03*
X130000000Y-24235000D03*
X130000000Y-25505000D03*
D27*
X132785000Y-26505000D03*
X134055000Y-26505000D03*
X135325000Y-26505000D03*
X136595000Y-26505000D03*
X137865000Y-26505000D03*
X139135000Y-26505000D03*
X140405000Y-26505000D03*
X141675000Y-26505000D03*
X142945000Y-26505000D03*
X144215000Y-26505000D03*
D26*
X147000000Y-25505000D03*
X147000000Y-24235000D03*
X147000000Y-22965000D03*
X147000000Y-21695000D03*
X147000000Y-20425000D03*
X147000000Y-19155000D03*
X147000000Y-17885000D03*
X147000000Y-16615000D03*
X147000000Y-15345000D03*
X147000000Y-14075000D03*
X147000000Y-12805000D03*
X147000000Y-11535000D03*
X147000000Y-10265000D03*
X147000000Y-8995000D03*
%TD*%
M02*
