M48
; DRILL file {KiCad (6.0.1)} date Sun 06 Feb 2022 11:46:36 AM EST
; FORMAT={-:-/ absolute / inch / decimal}
; #@! TF.CreationDate,2022-02-06T11:46:36-05:00
; #@! TF.GenerationSoftware,Kicad,Pcbnew,(6.0.1)
; #@! TF.FileFunction,MixedPlating,1,2
FMAT,2
INCH
; #@! TA.AperFunction,Plated,PTH,ComponentDrill
T1C0.0295
; #@! TA.AperFunction,Plated,PTH,ComponentDrill
T2C0.0300
; #@! TA.AperFunction,Plated,PTH,ComponentDrill
T3C0.0315
; #@! TA.AperFunction,Plated,PTH,ViaDrill
T4C0.0354
; #@! TA.AperFunction,Plated,PTH,ComponentDrill
T5C0.0354
; #@! TA.AperFunction,Plated,PTH,ComponentDrill
T6C0.0394
; #@! TA.AperFunction,Plated,PTH,ComponentDrill
T7C0.0433
; #@! TA.AperFunction,Plated,PTH,ComponentDrill
T8C0.0469
; #@! TA.AperFunction,Plated,PTH,ComponentDrill
T9C0.0472
; #@! TA.AperFunction,Plated,PTH,ComponentDrill
T10C0.1575
; #@! TA.AperFunction,NonPlated,NPTH,ComponentDrill
T11C0.0709
%
G90
G05
T1
X6.3488Y-3.1083
X6.3516Y-2.722
X6.3988Y-3.1083
X6.4016Y-2.722
X6.4488Y-3.1083
X6.4516Y-2.722
X6.6094Y-3.5555
X6.6594Y-3.5555
X6.7094Y-3.5555
T2
X1.8472Y-3.0071
X1.8472Y-3.6071
X1.9472Y-3.0071
X1.9472Y-3.6071
X2.0472Y-3.0071
X2.0472Y-3.6071
X2.1472Y-3.0071
X2.1472Y-3.6071
X2.2472Y-3.0071
X2.2472Y-3.6071
X2.8709Y-3.0071
X2.8709Y-3.6071
X2.9709Y-3.0071
X2.9709Y-3.6071
X3.0709Y-3.0071
X3.0709Y-3.6071
X3.1709Y-3.0071
X3.1709Y-3.6071
X3.2709Y-3.0071
X3.2709Y-3.6071
X3.8945Y-3.0071
X3.8945Y-3.6071
X3.9945Y-3.0071
X3.9945Y-3.6071
X4.0945Y-3.0071
X4.0945Y-3.6071
X4.1945Y-3.0071
X4.1945Y-3.6071
X4.2945Y-3.0071
X4.2945Y-3.6071
X4.9181Y-3.0071
X4.9181Y-3.6071
X5.0181Y-3.0071
X5.0181Y-3.6071
X5.1181Y-3.0071
X5.1181Y-3.6071
X5.2181Y-3.0071
X5.2181Y-3.6071
X5.3181Y-3.0071
X5.3181Y-3.6071
T3
X0.2854Y-3.2126
X0.2854Y-3.4094
X0.334Y-1.7559
X0.334Y-2.3504
X0.4324Y-1.7559
X0.4324Y-2.3504
X0.4331Y-2.7264
X0.4331Y-3.3264
X5.7492Y-2.9016
X5.7492Y-3.3091
X6.0465Y-2.2953
X6.0465Y-2.435
X6.0465Y-2.5728
X6.1272Y-3.6969
X6.3492Y-2.9016
X6.3492Y-3.3091
X6.6465Y-2.2953
X6.6465Y-2.435
X6.6465Y-2.5728
X6.7272Y-3.6969
T4
X1.1909Y-2.5295
X1.1909Y-2.9272
X1.2736Y-2.4685
X1.2736Y-2.9252
X1.4803Y-2.6437
X1.4823Y-2.8858
X1.4843Y-3.3406
X1.4843Y-3.5079
X1.6673Y-2.4823
X1.6673Y-2.685
X1.8484Y-2.7402
X1.8484Y-2.8622
T5
X4.3012Y-0.7953
X4.4012Y-0.7953
X4.4012Y-1.7953
X4.5012Y-0.7953
X4.5012Y-1.7953
X4.6012Y-0.7953
X4.6012Y-1.7953
X4.7012Y-0.7953
X4.7012Y-1.7953
X4.8012Y-0.7953
X5.3465Y-0.3465
X5.3465Y-0.4465
X5.3465Y-0.5465
X5.3465Y-0.6465
X5.3465Y-0.7465
X5.3465Y-0.8465
X5.3465Y-0.9465
X5.3465Y-1.0465
X5.3465Y-1.1465
X5.3465Y-1.2465
X5.3465Y-1.3465
X5.3465Y-1.4465
X5.3465Y-1.5465
X5.3465Y-1.6465
X5.3465Y-1.7465
X5.3465Y-1.8465
X5.3465Y-1.9465
X5.3465Y-2.0465
X5.3465Y-2.1465
X5.748Y-3.1102
X5.748Y-3.5039
X5.848Y-3.1102
X5.848Y-3.5039
X6.027Y-3.5039
X6.127Y-3.5039
X6.3465Y-0.3465
X6.3465Y-0.4465
X6.3465Y-0.5465
X6.3465Y-0.6465
X6.3465Y-0.7465
X6.3465Y-0.8465
X6.3465Y-0.9465
X6.3465Y-1.0465
X6.3465Y-1.1465
X6.3465Y-1.2465
X6.3465Y-1.3465
X6.3465Y-1.4465
X6.3465Y-1.5465
X6.3465Y-1.6465
X6.3465Y-1.7465
X6.3465Y-1.8465
X6.3465Y-1.9465
X6.3465Y-2.0465
X6.3465Y-2.1465
T6
X0.6226Y-1.4961
X0.8195Y-1.4961
X3.9518Y-0.5157
X4.0518Y-0.5157
X4.1518Y-0.5157
X4.4024Y-0.5157
X4.5024Y-0.5157
X4.6024Y-0.5157
T7
X0.6196Y-1.9551
X0.6196Y-2.0551
X0.6196Y-2.1551
X4.2126Y-0.2362
X4.4094Y-0.2362
X4.6063Y-0.2362
X4.8031Y-0.2362
T8
X0.8268Y-0.8031
X0.9268Y-0.8031
X1.0268Y-0.8031
X1.1268Y-0.8031
X1.2268Y-0.8031
X1.3268Y-0.8031
X1.4268Y-0.8031
X1.5268Y-0.8031
X1.6268Y-0.8031
X1.7268Y-0.8031
X6.9291Y-3.2874
X6.9291Y-3.3874
X6.9291Y-3.4874
X6.9291Y-3.5874
X6.9291Y-3.6874
X6.9291Y-3.7874
T9
X0.624Y-1.1432
X0.7756Y-1.1432
X0.9272Y-1.1432
X1.0787Y-1.1432
T10
X0.2362Y-0.8268
X0.2362Y-4.3701
X6.9291Y-0.8268
X6.9291Y-4.3701
T11
X0.8733Y-1.8583
X0.8733Y-2.252
T0
M30
