%TF.GenerationSoftware,KiCad,Pcbnew,(6.0.2)*%
%TF.CreationDate,2022-02-27T11:44:28-05:00*%
%TF.ProjectId,digiMatex_DS410,64696769-4d61-4746-9578-5f4453343130,B*%
%TF.SameCoordinates,PX2ebae40PY2255100*%
%TF.FileFunction,Soldermask,Bot*%
%TF.FilePolarity,Negative*%
%FSLAX46Y46*%
G04 Gerber Fmt 4.6, Leading zero omitted, Abs format (unit mm)*
G04 Created by KiCad (PCBNEW (6.0.2)) date 2022-02-27 11:44:28*
%MOMM*%
%LPD*%
G01*
G04 APERTURE LIST*
G04 Aperture macros list*
%AMRoundRect*
0 Rectangle with rounded corners*
0 $1 Rounding radius*
0 $2 $3 $4 $5 $6 $7 $8 $9 X,Y pos of 4 corners*
0 Add a 4 corners polygon primitive as box body*
4,1,4,$2,$3,$4,$5,$6,$7,$8,$9,$2,$3,0*
0 Add four circle primitives for the rounded corners*
1,1,$1+$1,$2,$3*
1,1,$1+$1,$4,$5*
1,1,$1+$1,$6,$7*
1,1,$1+$1,$8,$9*
0 Add four rect primitives between the rounded corners*
20,1,$1+$1,$2,$3,$4,$5,0*
20,1,$1+$1,$4,$5,$6,$7,0*
20,1,$1+$1,$6,$7,$8,$9,0*
20,1,$1+$1,$8,$9,$2,$3,0*%
G04 Aperture macros list end*
%ADD10R,2.000000X0.900000*%
%ADD11R,0.900000X2.000000*%
%ADD12R,5.000000X5.000000*%
%ADD13C,1.600000*%
%ADD14RoundRect,0.250000X0.337500X0.475000X-0.337500X0.475000X-0.337500X-0.475000X0.337500X-0.475000X0*%
%ADD15C,1.524000*%
%ADD16R,1.800000X1.800000*%
%ADD17C,1.800000*%
%ADD18C,8.000000*%
%ADD19R,2.600000X2.600000*%
%ADD20C,2.600000*%
%ADD21R,2.200000X2.200000*%
%ADD22C,2.200000*%
%ADD23RoundRect,0.237500X0.237500X-0.250000X0.237500X0.250000X-0.237500X0.250000X-0.237500X-0.250000X0*%
%ADD24RoundRect,0.237500X-0.250000X-0.237500X0.250000X-0.237500X0.250000X0.237500X-0.250000X0.237500X0*%
%ADD25RoundRect,0.225000X-0.225000X-0.250000X0.225000X-0.250000X0.225000X0.250000X-0.225000X0.250000X0*%
%ADD26RoundRect,0.250000X-0.845000X0.620000X-0.845000X-0.620000X0.845000X-0.620000X0.845000X0.620000X0*%
%ADD27O,2.190000X1.740000*%
%ADD28RoundRect,0.250000X0.275000X0.350000X-0.275000X0.350000X-0.275000X-0.350000X0.275000X-0.350000X0*%
%ADD29O,1.600000X1.600000*%
%ADD30R,1.600000X1.600000*%
%ADD31R,1.700000X1.700000*%
%ADD32O,1.700000X1.700000*%
%ADD33R,1.200000X2.200000*%
%ADD34R,5.800000X6.400000*%
%ADD35RoundRect,0.237500X0.250000X0.237500X-0.250000X0.237500X-0.250000X-0.237500X0.250000X-0.237500X0*%
%ADD36RoundRect,0.250000X-0.450000X0.350000X-0.450000X-0.350000X0.450000X-0.350000X0.450000X0.350000X0*%
%ADD37RoundRect,0.150000X-0.587500X-0.150000X0.587500X-0.150000X0.587500X0.150000X-0.587500X0.150000X0*%
%ADD38RoundRect,0.150000X-0.150000X0.875000X-0.150000X-0.875000X0.150000X-0.875000X0.150000X0.875000X0*%
%ADD39RoundRect,0.150000X-0.150000X0.587500X-0.150000X-0.587500X0.150000X-0.587500X0.150000X0.587500X0*%
%ADD40RoundRect,0.225000X0.225000X0.250000X-0.225000X0.250000X-0.225000X-0.250000X0.225000X-0.250000X0*%
%ADD41R,2.200000X1.200000*%
%ADD42R,6.400000X5.800000*%
%ADD43RoundRect,0.225000X-0.250000X0.225000X-0.250000X-0.225000X0.250000X-0.225000X0.250000X0.225000X0*%
%ADD44C,2.000000*%
%ADD45RoundRect,0.250000X0.350000X0.450000X-0.350000X0.450000X-0.350000X-0.450000X0.350000X-0.450000X0*%
%ADD46RoundRect,0.225000X0.250000X-0.225000X0.250000X0.225000X-0.250000X0.225000X-0.250000X-0.225000X0*%
%ADD47R,2.000000X2.000000*%
%ADD48RoundRect,0.250000X-0.620000X-0.845000X0.620000X-0.845000X0.620000X0.845000X-0.620000X0.845000X0*%
%ADD49O,1.740000X2.190000*%
%ADD50RoundRect,0.237500X-0.237500X0.250000X-0.237500X-0.250000X0.237500X-0.250000X0.237500X0.250000X0*%
%ADD51RoundRect,0.150000X0.850000X0.150000X-0.850000X0.150000X-0.850000X-0.150000X0.850000X-0.150000X0*%
%ADD52RoundRect,0.250000X-0.650000X0.325000X-0.650000X-0.325000X0.650000X-0.325000X0.650000X0.325000X0*%
G04 APERTURE END LIST*
D10*
%TO.C,U3*%
X147000000Y-8995000D03*
X147000000Y-10265000D03*
X147000000Y-11535000D03*
X147000000Y-12805000D03*
X147000000Y-14075000D03*
X147000000Y-15345000D03*
X147000000Y-16615000D03*
X147000000Y-17885000D03*
X147000000Y-19155000D03*
X147000000Y-20425000D03*
X147000000Y-21695000D03*
X147000000Y-22965000D03*
X147000000Y-24235000D03*
X147000000Y-25505000D03*
D11*
X144215000Y-26505000D03*
X142945000Y-26505000D03*
X141675000Y-26505000D03*
X140405000Y-26505000D03*
X139135000Y-26505000D03*
X137865000Y-26505000D03*
X136595000Y-26505000D03*
X135325000Y-26505000D03*
X134055000Y-26505000D03*
X132785000Y-26505000D03*
D10*
X130000000Y-25505000D03*
X130000000Y-24235000D03*
X130000000Y-22965000D03*
X130000000Y-21695000D03*
X130000000Y-20425000D03*
X130000000Y-19155000D03*
X130000000Y-17885000D03*
X130000000Y-16615000D03*
X130000000Y-15345000D03*
X130000000Y-14075000D03*
X130000000Y-12805000D03*
X130000000Y-11535000D03*
X130000000Y-10265000D03*
X130000000Y-8995000D03*
D12*
X139500000Y-16495000D03*
%TD*%
D13*
%TO.C,A2*%
X137600000Y-53540000D03*
X137600000Y-56080000D03*
X137600000Y-58620000D03*
X137600000Y-61160000D03*
X163000000Y-63700000D03*
X163000000Y-61160000D03*
X163000000Y-58620000D03*
X163000000Y-56080000D03*
X163000000Y-53540000D03*
X163000000Y-51000000D03*
%TD*%
D14*
%TO.C,C16*%
X157837500Y-50350000D03*
X155762500Y-50350000D03*
%TD*%
%TO.C,C13*%
X152937500Y-54300000D03*
X150862500Y-54300000D03*
%TD*%
D15*
%TO.C,D4*%
X72920000Y-91620000D03*
X75460000Y-91620000D03*
X78000000Y-91620000D03*
X80540000Y-91620000D03*
X83080000Y-91620000D03*
X83080000Y-76380000D03*
X80540000Y-76380000D03*
X78000000Y-76380000D03*
X75460000Y-76380000D03*
X72920000Y-76380000D03*
%TD*%
D16*
%TO.C,D8*%
X146000000Y-89000000D03*
D17*
X148540000Y-89000000D03*
%TD*%
D16*
%TO.C,D6*%
X146000000Y-79000000D03*
D17*
X148540000Y-79000000D03*
%TD*%
D16*
%TO.C,D7*%
X36000000Y-84000000D03*
D17*
X33460000Y-84000000D03*
%TD*%
D15*
%TO.C,D5*%
X46920000Y-91620000D03*
X49460000Y-91620000D03*
X52000000Y-91620000D03*
X54540000Y-91620000D03*
X57080000Y-91620000D03*
X57080000Y-76380000D03*
X54540000Y-76380000D03*
X52000000Y-76380000D03*
X49460000Y-76380000D03*
X46920000Y-76380000D03*
%TD*%
D18*
%TO.C,H1*%
X6000000Y-21000000D03*
%TD*%
D15*
%TO.C,D2*%
X124920000Y-91620000D03*
X127460000Y-91620000D03*
X130000000Y-91620000D03*
X132540000Y-91620000D03*
X135080000Y-91620000D03*
X135080000Y-76380000D03*
X132540000Y-76380000D03*
X130000000Y-76380000D03*
X127460000Y-76380000D03*
X124920000Y-76380000D03*
%TD*%
%TO.C,D3*%
X98920000Y-91620000D03*
X101460000Y-91620000D03*
X104000000Y-91620000D03*
X106540000Y-91620000D03*
X109080000Y-91620000D03*
X109080000Y-76380000D03*
X106540000Y-76380000D03*
X104000000Y-76380000D03*
X101460000Y-76380000D03*
X98920000Y-76380000D03*
%TD*%
D18*
%TO.C,H3*%
X176000000Y-111000000D03*
%TD*%
%TO.C,H2*%
X6000000Y-111000000D03*
%TD*%
%TO.C,H4*%
X176000000Y-21000000D03*
%TD*%
D19*
%TO.C,J5*%
X175975000Y-51000000D03*
D20*
X175975000Y-56000000D03*
X175975000Y-61000000D03*
X175975000Y-66000000D03*
X175975000Y-71000000D03*
X175975000Y-76000000D03*
%TD*%
D21*
%TO.C,D1*%
X15850000Y-29037500D03*
D22*
X19700000Y-29037500D03*
X23550000Y-29037500D03*
X27400000Y-29037500D03*
%TD*%
D23*
%TO.C,R4*%
X122850000Y-50112500D03*
X122850000Y-48287500D03*
%TD*%
D24*
%TO.C,R9*%
X125287500Y-25500000D03*
X127112500Y-25500000D03*
%TD*%
D25*
%TO.C,C18*%
X153125000Y-70250000D03*
X151575000Y-70250000D03*
%TD*%
D24*
%TO.C,R10*%
X132787500Y-31800000D03*
X134612500Y-31800000D03*
%TD*%
D23*
%TO.C,R2*%
X116800000Y-50112500D03*
X116800000Y-48287500D03*
%TD*%
D26*
%TO.C,J4*%
X176000000Y-83500000D03*
D27*
X176000000Y-86040000D03*
X176000000Y-88580000D03*
X176000000Y-91120000D03*
X176000000Y-93660000D03*
X176000000Y-96200000D03*
%TD*%
D28*
%TO.C,L1*%
X155600000Y-57150000D03*
X157900000Y-57150000D03*
%TD*%
D25*
%TO.C,C8*%
X125425000Y-28000000D03*
X126975000Y-28000000D03*
%TD*%
D13*
%TO.C,R6*%
X123800000Y-57820000D03*
D29*
X123800000Y-67980000D03*
%TD*%
D30*
%TO.C,C9*%
X78200000Y-32000000D03*
D13*
X78200000Y-34500000D03*
%TD*%
D30*
%TO.C,C10*%
X86800000Y-32000000D03*
D13*
X86800000Y-34500000D03*
%TD*%
D31*
%TO.C,J3*%
X121175000Y-41725000D03*
D32*
X123715000Y-41725000D03*
X121175000Y-39185000D03*
X123715000Y-39185000D03*
X121175000Y-36645000D03*
X123715000Y-36645000D03*
%TD*%
D33*
%TO.C,U4*%
X84780000Y-27800000D03*
D34*
X82500000Y-21500000D03*
D33*
X80220000Y-27800000D03*
%TD*%
D35*
%TO.C,R14*%
X142687500Y-55300000D03*
X144512500Y-55300000D03*
%TD*%
D36*
%TO.C,R11*%
X114700000Y-28000000D03*
X114700000Y-30000000D03*
%TD*%
D24*
%TO.C,R20*%
X157662500Y-72250000D03*
X155837500Y-72250000D03*
%TD*%
D37*
%TO.C,Q4*%
X157687500Y-53550000D03*
X155812500Y-52600000D03*
X155812500Y-54500000D03*
%TD*%
D38*
%TO.C,U1*%
X14115000Y-79350000D03*
X15385000Y-79350000D03*
X16655000Y-79350000D03*
X17925000Y-79350000D03*
X19195000Y-79350000D03*
X20465000Y-79350000D03*
X21735000Y-79350000D03*
X23005000Y-79350000D03*
X24275000Y-79350000D03*
X25545000Y-79350000D03*
X26815000Y-79350000D03*
X28085000Y-79350000D03*
X28085000Y-88650000D03*
X26815000Y-88650000D03*
X25545000Y-88650000D03*
X24275000Y-88650000D03*
X23005000Y-88650000D03*
X21735000Y-88650000D03*
X20465000Y-88650000D03*
X19195000Y-88650000D03*
X17925000Y-88650000D03*
X16655000Y-88650000D03*
X15385000Y-88650000D03*
X14115000Y-88650000D03*
%TD*%
D39*
%TO.C,Q1*%
X122850000Y-52862500D03*
X124750000Y-52862500D03*
X123800000Y-54737500D03*
%TD*%
D24*
%TO.C,R1*%
X20287500Y-91700000D03*
X22112500Y-91700000D03*
%TD*%
%TO.C,R19*%
X157662500Y-66050000D03*
X155837500Y-66050000D03*
%TD*%
D36*
%TO.C,R12*%
X117600000Y-28000000D03*
X117600000Y-30000000D03*
%TD*%
D40*
%TO.C,C17*%
X151575000Y-68250000D03*
X153125000Y-68250000D03*
%TD*%
D41*
%TO.C,U2*%
X14700000Y-45720000D03*
D42*
X8400000Y-48000000D03*
D41*
X14700000Y-50280000D03*
%TD*%
D13*
%TO.C,R3*%
X117750000Y-57820000D03*
D29*
X117750000Y-67980000D03*
%TD*%
D23*
%TO.C,R5*%
X110750000Y-50112500D03*
X110750000Y-48287500D03*
%TD*%
D43*
%TO.C,C5*%
X159300000Y-10325000D03*
X159300000Y-11875000D03*
%TD*%
D35*
%TO.C,R15*%
X142687500Y-57300000D03*
X144512500Y-57300000D03*
%TD*%
D24*
%TO.C,R21*%
X157662500Y-70250000D03*
X155837500Y-70250000D03*
%TD*%
D44*
%TO.C,SW2*%
X109100000Y-40900000D03*
X102600000Y-40900000D03*
X102600000Y-36400000D03*
X109100000Y-36400000D03*
%TD*%
D24*
%TO.C,R18*%
X157662500Y-68250000D03*
X155837500Y-68250000D03*
%TD*%
D30*
%TO.C,C3*%
X24892621Y-44200000D03*
D13*
X27392621Y-44200000D03*
%TD*%
D39*
%TO.C,Q2*%
X116800000Y-52862500D03*
X118700000Y-52862500D03*
X117750000Y-54737500D03*
%TD*%
D45*
%TO.C,R17*%
X155750000Y-61850000D03*
X157750000Y-61850000D03*
%TD*%
D30*
%TO.C,C4*%
X24917621Y-52200000D03*
D13*
X27417621Y-52200000D03*
%TD*%
D46*
%TO.C,C7*%
X151000000Y-11775000D03*
X151000000Y-10225000D03*
%TD*%
D45*
%TO.C,R16*%
X155750000Y-59450000D03*
X157750000Y-59450000D03*
%TD*%
D47*
%TO.C,C1*%
X15814823Y-38000000D03*
D44*
X20814823Y-38000000D03*
%TD*%
D40*
%TO.C,C11*%
X153075000Y-51500000D03*
X151525000Y-51500000D03*
%TD*%
D44*
%TO.C,SW1*%
X135800000Y-40900000D03*
X142300000Y-40900000D03*
X142300000Y-36400000D03*
X135800000Y-36400000D03*
%TD*%
D40*
%TO.C,C12*%
X144575000Y-53300000D03*
X143025000Y-53300000D03*
%TD*%
D48*
%TO.C,J1*%
X21000000Y-20400000D03*
D49*
X23540000Y-20400000D03*
X26080000Y-20400000D03*
X28620000Y-20400000D03*
X31160000Y-20400000D03*
X33700000Y-20400000D03*
X36240000Y-20400000D03*
X38780000Y-20400000D03*
X41320000Y-20400000D03*
X43860000Y-20400000D03*
%TD*%
D31*
%TO.C,J2*%
X164375000Y-32925000D03*
D32*
X161835000Y-32925000D03*
X164375000Y-35465000D03*
X161835000Y-35465000D03*
X164375000Y-38005000D03*
X161835000Y-38005000D03*
X164375000Y-40545000D03*
X161835000Y-40545000D03*
X164375000Y-43085000D03*
X161835000Y-43085000D03*
%TD*%
D13*
%TO.C,R7*%
X111700000Y-57850000D03*
D29*
X111700000Y-68010000D03*
%TD*%
D25*
%TO.C,C14*%
X157525000Y-64050000D03*
X155975000Y-64050000D03*
%TD*%
D50*
%TO.C,R8*%
X156800000Y-10187500D03*
X156800000Y-12012500D03*
%TD*%
D39*
%TO.C,Q3*%
X110750000Y-52862500D03*
X112650000Y-52862500D03*
X111700000Y-54737500D03*
%TD*%
D45*
%TO.C,R13*%
X129400000Y-31800000D03*
X127400000Y-31800000D03*
%TD*%
D51*
%TO.C,U5*%
X147550000Y-57355000D03*
X147550000Y-58625000D03*
X147550000Y-59895000D03*
X147550000Y-61165000D03*
X147550000Y-62435000D03*
X147550000Y-63705000D03*
X147550000Y-64975000D03*
X147550000Y-66245000D03*
X152550000Y-66245000D03*
X152550000Y-64975000D03*
X152550000Y-63705000D03*
X152550000Y-62435000D03*
X152550000Y-61165000D03*
X152550000Y-59895000D03*
X152550000Y-58625000D03*
X152550000Y-57355000D03*
%TD*%
D52*
%TO.C,C6*%
X153900000Y-10225000D03*
X153900000Y-13175000D03*
%TD*%
D40*
%TO.C,C15*%
X157825000Y-48100000D03*
X156275000Y-48100000D03*
%TD*%
D25*
%TO.C,C2*%
X9825000Y-86500000D03*
X11375000Y-86500000D03*
%TD*%
M02*
