%TF.GenerationSoftware,KiCad,Pcbnew,(6.0.2)*%
%TF.CreationDate,2022-02-27T11:44:28-05:00*%
%TF.ProjectId,digiMatex_DS410,64696769-4d61-4746-9578-5f4453343130,B*%
%TF.SameCoordinates,PX2ebae40PY2255100*%
%TF.FileFunction,Soldermask,Top*%
%TF.FilePolarity,Negative*%
%FSLAX46Y46*%
G04 Gerber Fmt 4.6, Leading zero omitted, Abs format (unit mm)*
G04 Created by KiCad (PCBNEW (6.0.2)) date 2022-02-27 11:44:28*
%MOMM*%
%LPD*%
G01*
G04 APERTURE LIST*
G04 Aperture macros list*
%AMRoundRect*
0 Rectangle with rounded corners*
0 $1 Rounding radius*
0 $2 $3 $4 $5 $6 $7 $8 $9 X,Y pos of 4 corners*
0 Add a 4 corners polygon primitive as box body*
4,1,4,$2,$3,$4,$5,$6,$7,$8,$9,$2,$3,0*
0 Add four circle primitives for the rounded corners*
1,1,$1+$1,$2,$3*
1,1,$1+$1,$4,$5*
1,1,$1+$1,$6,$7*
1,1,$1+$1,$8,$9*
0 Add four rect primitives between the rounded corners*
20,1,$1+$1,$2,$3,$4,$5,0*
20,1,$1+$1,$4,$5,$6,$7,0*
20,1,$1+$1,$6,$7,$8,$9,0*
20,1,$1+$1,$8,$9,$2,$3,0*%
G04 Aperture macros list end*
%ADD10C,0.150000*%
%ADD11C,1.600000*%
%ADD12C,1.524000*%
%ADD13R,1.800000X1.800000*%
%ADD14C,1.800000*%
%ADD15C,8.000000*%
%ADD16R,2.600000X2.600000*%
%ADD17C,2.600000*%
%ADD18R,2.200000X2.200000*%
%ADD19C,2.200000*%
%ADD20RoundRect,0.250000X-0.845000X0.620000X-0.845000X-0.620000X0.845000X-0.620000X0.845000X0.620000X0*%
%ADD21O,2.190000X1.740000*%
%ADD22O,1.600000X1.600000*%
%ADD23R,1.600000X1.600000*%
%ADD24R,1.700000X1.700000*%
%ADD25O,1.700000X1.700000*%
%ADD26C,2.000000*%
%ADD27R,2.000000X2.000000*%
%ADD28RoundRect,0.250000X-0.620000X-0.845000X0.620000X-0.845000X0.620000X0.845000X-0.620000X0.845000X0*%
%ADD29O,1.740000X2.190000*%
G04 APERTURE END LIST*
D10*
X74700000Y-13000000D02*
X90400000Y-13000000D01*
X90400000Y-13000000D02*
X90400000Y-24700000D01*
X90400000Y-24700000D02*
X74700000Y-24700000D01*
X74700000Y-24700000D02*
X74700000Y-13000000D01*
G36*
X74700000Y-13000000D02*
G01*
X90400000Y-13000000D01*
X90400000Y-24700000D01*
X74700000Y-24700000D01*
X74700000Y-13000000D01*
G37*
X0Y-40400000D02*
X11800000Y-40400000D01*
X11800000Y-40400000D02*
X11800000Y-55600000D01*
X11800000Y-55600000D02*
X0Y-55600000D01*
X0Y-55600000D02*
X0Y-40400000D01*
G36*
X0Y-40400000D02*
G01*
X11800000Y-40400000D01*
X11800000Y-55600000D01*
X0Y-55600000D01*
X0Y-40400000D01*
G37*
D11*
%TO.C,A2*%
X137600000Y-53540000D03*
X137600000Y-56080000D03*
X137600000Y-58620000D03*
X137600000Y-61160000D03*
X163000000Y-63700000D03*
X163000000Y-61160000D03*
X163000000Y-58620000D03*
X163000000Y-56080000D03*
X163000000Y-53540000D03*
X163000000Y-51000000D03*
%TD*%
D12*
%TO.C,D4*%
X72920000Y-91620000D03*
X75460000Y-91620000D03*
X78000000Y-91620000D03*
X80540000Y-91620000D03*
X83080000Y-91620000D03*
X83080000Y-76380000D03*
X80540000Y-76380000D03*
X78000000Y-76380000D03*
X75460000Y-76380000D03*
X72920000Y-76380000D03*
%TD*%
D13*
%TO.C,D8*%
X146000000Y-89000000D03*
D14*
X148540000Y-89000000D03*
%TD*%
D13*
%TO.C,D6*%
X146000000Y-79000000D03*
D14*
X148540000Y-79000000D03*
%TD*%
D13*
%TO.C,D7*%
X36000000Y-84000000D03*
D14*
X33460000Y-84000000D03*
%TD*%
D12*
%TO.C,D5*%
X46920000Y-91620000D03*
X49460000Y-91620000D03*
X52000000Y-91620000D03*
X54540000Y-91620000D03*
X57080000Y-91620000D03*
X57080000Y-76380000D03*
X54540000Y-76380000D03*
X52000000Y-76380000D03*
X49460000Y-76380000D03*
X46920000Y-76380000D03*
%TD*%
D15*
%TO.C,H1*%
X6000000Y-21000000D03*
%TD*%
D12*
%TO.C,D2*%
X124920000Y-91620000D03*
X127460000Y-91620000D03*
X130000000Y-91620000D03*
X132540000Y-91620000D03*
X135080000Y-91620000D03*
X135080000Y-76380000D03*
X132540000Y-76380000D03*
X130000000Y-76380000D03*
X127460000Y-76380000D03*
X124920000Y-76380000D03*
%TD*%
%TO.C,D3*%
X98920000Y-91620000D03*
X101460000Y-91620000D03*
X104000000Y-91620000D03*
X106540000Y-91620000D03*
X109080000Y-91620000D03*
X109080000Y-76380000D03*
X106540000Y-76380000D03*
X104000000Y-76380000D03*
X101460000Y-76380000D03*
X98920000Y-76380000D03*
%TD*%
D15*
%TO.C,H3*%
X176000000Y-111000000D03*
%TD*%
%TO.C,H2*%
X6000000Y-111000000D03*
%TD*%
%TO.C,H4*%
X176000000Y-21000000D03*
%TD*%
D16*
%TO.C,J5*%
X175975000Y-51000000D03*
D17*
X175975000Y-56000000D03*
X175975000Y-61000000D03*
X175975000Y-66000000D03*
X175975000Y-71000000D03*
X175975000Y-76000000D03*
%TD*%
D18*
%TO.C,D1*%
X15850000Y-29037500D03*
D19*
X19700000Y-29037500D03*
X23550000Y-29037500D03*
X27400000Y-29037500D03*
%TD*%
D20*
%TO.C,J4*%
X176000000Y-83500000D03*
D21*
X176000000Y-86040000D03*
X176000000Y-88580000D03*
X176000000Y-91120000D03*
X176000000Y-93660000D03*
X176000000Y-96200000D03*
%TD*%
D11*
%TO.C,R6*%
X123800000Y-57820000D03*
D22*
X123800000Y-67980000D03*
%TD*%
D23*
%TO.C,C9*%
X78200000Y-32000000D03*
D11*
X78200000Y-34500000D03*
%TD*%
D23*
%TO.C,C10*%
X86800000Y-32000000D03*
D11*
X86800000Y-34500000D03*
%TD*%
D24*
%TO.C,J3*%
X121175000Y-41725000D03*
D25*
X123715000Y-41725000D03*
X121175000Y-39185000D03*
X123715000Y-39185000D03*
X121175000Y-36645000D03*
X123715000Y-36645000D03*
%TD*%
D11*
%TO.C,R3*%
X117750000Y-57820000D03*
D22*
X117750000Y-67980000D03*
%TD*%
D26*
%TO.C,SW2*%
X109100000Y-40900000D03*
X102600000Y-40900000D03*
X102600000Y-36400000D03*
X109100000Y-36400000D03*
%TD*%
D23*
%TO.C,C3*%
X24892621Y-44200000D03*
D11*
X27392621Y-44200000D03*
%TD*%
D23*
%TO.C,C4*%
X24917621Y-52200000D03*
D11*
X27417621Y-52200000D03*
%TD*%
D27*
%TO.C,C1*%
X15814823Y-38000000D03*
D26*
X20814823Y-38000000D03*
%TD*%
%TO.C,SW1*%
X135800000Y-40900000D03*
X142300000Y-40900000D03*
X142300000Y-36400000D03*
X135800000Y-36400000D03*
%TD*%
D28*
%TO.C,J1*%
X21000000Y-20400000D03*
D29*
X23540000Y-20400000D03*
X26080000Y-20400000D03*
X28620000Y-20400000D03*
X31160000Y-20400000D03*
X33700000Y-20400000D03*
X36240000Y-20400000D03*
X38780000Y-20400000D03*
X41320000Y-20400000D03*
X43860000Y-20400000D03*
%TD*%
D24*
%TO.C,J2*%
X164375000Y-32925000D03*
D25*
X161835000Y-32925000D03*
X164375000Y-35465000D03*
X161835000Y-35465000D03*
X164375000Y-38005000D03*
X161835000Y-38005000D03*
X164375000Y-40545000D03*
X161835000Y-40545000D03*
X164375000Y-43085000D03*
X161835000Y-43085000D03*
%TD*%
D11*
%TO.C,R7*%
X111700000Y-57850000D03*
D22*
X111700000Y-68010000D03*
%TD*%
M02*
