M48
; DRILL file {KiCad (6.0.2)} date Sat 26 Feb 2022 12:49:15 PM EST
; FORMAT={-:-/ absolute / inch / decimal}
; #@! TF.CreationDate,2022-02-26T12:49:15-05:00
; #@! TF.GenerationSoftware,Kicad,Pcbnew,(6.0.2)
; #@! TF.FileFunction,MixedPlating,1,2
FMAT,2
INCH
; #@! TA.AperFunction,Plated,PTH,ViaDrill
T1C0.0157
; #@! TA.AperFunction,Plated,PTH,ComponentDrill
T2C0.0300
; #@! TA.AperFunction,Plated,PTH,ViaDrill
T3C0.0315
; #@! TA.AperFunction,Plated,PTH,ComponentDrill
T4C0.0315
; #@! TA.AperFunction,Plated,PTH,ComponentDrill
T5C0.0354
; #@! TA.AperFunction,Plated,PTH,ComponentDrill
T6C0.0394
; #@! TA.AperFunction,Plated,PTH,ComponentDrill
T7C0.0433
; #@! TA.AperFunction,Plated,PTH,ComponentDrill
T8C0.0469
; #@! TA.AperFunction,Plated,PTH,ComponentDrill
T9C0.0472
; #@! TA.AperFunction,Plated,PTH,ComponentDrill
T10C0.0512
; #@! TA.AperFunction,Plated,PTH,ComponentDrill
T11C0.1575
%
G90
G05
T1
X0.0787Y-1.6142
X0.0787Y-1.6929
X0.0787Y-1.7717
X0.0787Y-1.8504
X0.0787Y-1.9291
X0.0787Y-2.0079
X0.0787Y-2.0866
X0.0787Y-2.1654
X0.1181Y-1.6535
X0.1181Y-1.7323
X0.1181Y-1.811
X0.1181Y-1.8898
X0.1181Y-1.9685
X0.1181Y-2.0472
X0.1181Y-2.126
X0.1575Y-1.6142
X0.1575Y-1.6929
X0.1575Y-1.7717
X0.1575Y-1.8504
X0.1575Y-1.9291
X0.1575Y-2.0079
X0.1575Y-2.0866
X0.1575Y-2.1654
X0.1969Y-1.6535
X0.1969Y-1.7323
X0.1969Y-2.0472
X0.1969Y-2.126
X0.2362Y-1.6142
X0.2362Y-1.6929
X0.2362Y-2.0866
X0.2362Y-2.1654
X0.2756Y-1.6535
X0.2756Y-1.7323
X0.2756Y-2.0472
X0.2756Y-2.126
X0.315Y-1.6142
X0.315Y-1.6929
X0.315Y-2.0866
X0.315Y-2.1654
X0.3346Y-3.4055
X0.3543Y-1.6535
X0.3543Y-1.7323
X0.3543Y-2.0472
X0.3543Y-2.126
X0.3937Y-1.6142
X0.3937Y-1.6929
X0.3937Y-2.0866
X0.3937Y-2.1654
X0.4331Y-1.6535
X0.4331Y-1.7323
X0.4331Y-2.0472
X0.4331Y-2.126
X0.7047Y-3.2008
X0.9528Y-3.2008
X1.0354Y-2.8228
X1.0394Y-2.9094
X1.1181Y-2.7283
X1.1181Y-3.0501
X1.185Y-3.0176
X1.185Y-2.9094
X1.2126Y-3.4724
X1.252Y-2.6654
X1.4173Y-2.7513
X1.4803Y-3.6024
X1.4924Y-3.457
X1.8465Y-2.9044
X2.9921Y-0.5906
X2.9921Y-0.6693
X2.9921Y-0.748
X2.9921Y-0.8268
X2.9921Y-0.9055
X3.0315Y-0.6299
X3.0315Y-0.7087
X3.0315Y-0.7874
X3.0315Y-0.8661
X3.0315Y-0.9449
X3.0709Y-0.5906
X3.0709Y-0.6693
X3.0709Y-0.748
X3.0709Y-0.8268
X3.0709Y-0.9055
X3.1102Y-0.6299
X3.1496Y-0.5906
X3.1496Y-0.6693
X3.189Y-0.6299
X3.2283Y-0.5906
X3.2283Y-0.6693
X3.2677Y-0.6299
X3.3071Y-0.5906
X3.3071Y-0.6693
X3.3465Y-0.6299
X3.3858Y-0.5906
X3.3858Y-0.6693
X3.4252Y-0.6299
X3.4252Y-0.7087
X3.4252Y-0.7874
X3.4252Y-0.8661
X3.4252Y-0.9449
X3.4646Y-0.5906
X3.4646Y-0.6693
X3.4646Y-0.748
X3.4646Y-0.8268
X3.4646Y-0.9055
X3.5039Y-0.6299
X3.5039Y-0.7087
X3.5039Y-0.7874
X3.5039Y-0.8661
X3.5039Y-0.9449
X4.1437Y-0.8484
X4.1693Y-0.7795
X4.4173Y-0.8543
X4.435Y-2.0157
X4.4646Y-0.7559
X4.5866Y-0.8858
X4.6299Y-0.5039
X4.6299Y-0.5551
X4.6299Y-0.8858
X4.6732Y-2.0157
X4.9016Y-1.0551
X4.9114Y-2.0157
X5.2008Y-0.4016
X5.3583Y-1.252
X5.4252Y-0.5787
X5.4252Y-0.6457
X5.4252Y-0.7165
X5.4921Y-0.5787
X5.4921Y-0.6457
X5.4921Y-0.7165
X5.563Y-0.5787
X5.563Y-0.6457
X5.563Y-0.7165
X5.6772Y-0.9685
X5.7126Y-0.3543
X5.748Y-1.0669
X5.748Y-1.2008
X5.8701Y-0.9547
X5.8898Y-1.1181
X5.8917Y-1.1673
X5.9173Y-1.0138
X5.9961Y-0.4724
X5.9961Y-0.5197
X6.122Y-0.9961
X6.1693Y-0.9547
X6.189Y-1.0846
X6.2067Y-1.1516
X6.2717Y-0.3504
T2
X1.8472Y-3.0071
X1.8472Y-3.6071
X1.9472Y-3.0071
X1.9472Y-3.6071
X2.0472Y-3.0071
X2.0472Y-3.6071
X2.1472Y-3.0071
X2.1472Y-3.6071
X2.2472Y-3.0071
X2.2472Y-3.6071
X2.8709Y-3.0071
X2.8709Y-3.6071
X2.9709Y-3.0071
X2.9709Y-3.6071
X3.0709Y-3.0071
X3.0709Y-3.6071
X3.1709Y-3.0071
X3.1709Y-3.6071
X3.2709Y-3.0071
X3.2709Y-3.6071
X3.8945Y-3.0071
X3.8945Y-3.6071
X3.9945Y-3.0071
X3.9945Y-3.6071
X4.0945Y-3.0071
X4.0945Y-3.6071
X4.1945Y-3.0071
X4.1945Y-3.6071
X4.2945Y-3.0071
X4.2945Y-3.6071
X4.9181Y-3.0071
X4.9181Y-3.6071
X5.0181Y-3.0071
X5.0181Y-3.6071
X5.1181Y-3.0071
X5.1181Y-3.6071
X5.2181Y-3.0071
X5.2181Y-3.6071
X5.3181Y-3.0071
X5.3181Y-3.6071
T3
X4.7559Y-0.2559
X5.3543Y-0.3543
T4
X0.98Y-1.7402
X0.981Y-2.0551
X1.0784Y-1.7402
X1.0794Y-2.0551
X3.0787Y-1.2598
X3.0787Y-1.3583
X3.4173Y-1.2598
X3.4173Y-1.3583
X4.3976Y-2.2776
X4.3976Y-2.6776
X4.6358Y-2.2764
X4.6358Y-2.6764
X4.874Y-2.2764
X4.874Y-2.6764
T5
X1.3173Y-3.3071
X1.4173Y-3.3071
X5.4173Y-2.1079
X5.4173Y-2.2079
X5.4173Y-2.3079
X5.4173Y-2.4079
X5.748Y-3.1102
X5.748Y-3.5039
X5.848Y-3.1102
X5.848Y-3.5039
X6.4173Y-2.0079
X6.4173Y-2.1079
X6.4173Y-2.2079
X6.4173Y-2.3079
X6.4173Y-2.4079
X6.4173Y-2.5079
T6
X0.6226Y-1.4961
X0.8195Y-1.4961
X4.7707Y-1.4427
X4.7707Y-1.5427
X4.7707Y-1.6427
X4.8707Y-1.4427
X4.8707Y-1.5427
X4.8707Y-1.6427
X6.3715Y-1.2963
X6.3715Y-1.3963
X6.3715Y-1.4963
X6.3715Y-1.5963
X6.3715Y-1.6963
X6.4715Y-1.2963
X6.4715Y-1.3963
X6.4715Y-1.4963
X6.4715Y-1.5963
X6.4715Y-1.6963
T7
X4.0394Y-1.4331
X4.0394Y-1.6102
X4.2953Y-1.4331
X4.2953Y-1.6102
X5.3465Y-1.4331
X5.3465Y-1.6102
X5.6024Y-1.4331
X5.6024Y-1.6102
T8
X0.8268Y-0.8031
X0.9268Y-0.8031
X1.0268Y-0.8031
X1.1268Y-0.8031
X1.2268Y-0.8031
X1.3268Y-0.8031
X1.4268Y-0.8031
X1.5268Y-0.8031
X1.6268Y-0.8031
X1.7268Y-0.8031
X6.9291Y-3.2874
X6.9291Y-3.3874
X6.9291Y-3.4874
X6.9291Y-3.5874
X6.9291Y-3.6874
X6.9291Y-3.7874
T9
X0.624Y-1.1432
X0.7756Y-1.1432
X0.9272Y-1.1432
X1.0787Y-1.1432
T10
X6.9281Y-2.0079
X6.9281Y-2.2047
X6.9281Y-2.4016
X6.9281Y-2.5984
X6.9281Y-2.7953
X6.9281Y-2.9921
T11
X0.2362Y-0.8268
X0.2362Y-4.3701
X6.9291Y-0.8268
X6.9291Y-4.3701
T0
M30
